<mxfile host="app.diagrams.net" modified="2021-06-19T15:52:22.552Z" agent="5.0 (Windows NT 10.0; Win64; x64) AppleWebKit/537.36 (KHTML, like Gecko) Chrome/91.0.4472.114 Safari/537.36" etag="UNHtUogbOV7FWsfGim7z" version="14.8.0" type="github">
  <diagram id="qQxMBMxy5dAJylqUGXda" name="Page-1">
    <mxGraphModel dx="4322" dy="4128" grid="1" gridSize="10" guides="1" tooltips="1" connect="1" arrows="1" fold="1" page="1" pageScale="1" pageWidth="850" pageHeight="1100" math="0" shadow="0">
      <root>
        <mxCell id="0" />
        <mxCell id="1" parent="0" />
        <mxCell id="g-QY_plowE2kieTN7VP--140" value="" style="whiteSpace=wrap;html=1;aspect=fixed;" vertex="1" parent="1">
          <mxGeometry x="-70" y="350" width="1200" height="1200" as="geometry" />
        </mxCell>
        <mxCell id="g-QY_plowE2kieTN7VP--8" value="Avarta" style="html=1;shadow=0;dashed=0;fillColor=#0085FC;strokeColor=none;fontSize=16;fontColor=#ffffff;align=left;spacing=15;" vertex="1" parent="1">
          <mxGeometry x="-850" y="-2180" width="2530" height="60" as="geometry" />
        </mxCell>
        <mxCell id="g-QY_plowE2kieTN7VP--9" value="Mục tiêu" style="fillColor=none;strokeColor=none;fontSize=14;fontColor=#ffffff;align=center;" vertex="1" parent="g-QY_plowE2kieTN7VP--8">
          <mxGeometry width="70" height="40" relative="1" as="geometry">
            <mxPoint x="70" y="10" as="offset" />
          </mxGeometry>
        </mxCell>
        <mxCell id="g-QY_plowE2kieTN7VP--13" value="Search" style="html=1;shadow=0;dashed=0;shape=mxgraph.bootstrap.rrect;rSize=5;fontSize=14;fontColor=#ffffff;strokeColor=#ffffff;fillColor=none;" vertex="1" parent="g-QY_plowE2kieTN7VP--8">
          <mxGeometry x="1" width="70" height="40" relative="1" as="geometry">
            <mxPoint x="-80" y="10" as="offset" />
          </mxGeometry>
        </mxCell>
        <mxCell id="g-QY_plowE2kieTN7VP--43" value="Book" style="fillColor=none;strokeColor=none;fontSize=14;fontColor=#79BFFD;align=center;" vertex="1" parent="g-QY_plowE2kieTN7VP--8">
          <mxGeometry x="150" y="10" width="60" height="40" as="geometry" />
        </mxCell>
        <mxCell id="g-QY_plowE2kieTN7VP--132" value="Sở thích" style="fillColor=none;strokeColor=none;fontSize=14;fontColor=#79BFFD;align=center;" vertex="1" parent="g-QY_plowE2kieTN7VP--8">
          <mxGeometry x="210" y="10" width="60" height="40" as="geometry" />
        </mxCell>
        <mxCell id="g-QY_plowE2kieTN7VP--42" value="Book" style="fillColor=none;strokeColor=none;fontSize=14;fontColor=#79BFFD;align=center;" vertex="1" parent="1">
          <mxGeometry x="110" y="-1090" width="70" height="40" as="geometry" />
        </mxCell>
        <mxCell id="g-QY_plowE2kieTN7VP--79" value="Card Image" style="html=1;shadow=0;dashed=0;shape=mxgraph.bootstrap.rrect;rSize=5;strokeColor=#2D3338;html=1;whiteSpace=wrap;fillColor=#868E96;fontColor=#ffffff;verticalAlign=middle;align=center;spacing=20;fontSize=60;" vertex="1" parent="1">
          <mxGeometry x="-850" y="-2100" width="1710" height="780" as="geometry" />
        </mxCell>
        <mxCell id="g-QY_plowE2kieTN7VP--82" value="" style="whiteSpace=wrap;html=1;aspect=fixed;" vertex="1" parent="1">
          <mxGeometry x="875" y="-2120" width="800" height="800" as="geometry" />
        </mxCell>
        <mxCell id="g-QY_plowE2kieTN7VP--83" value="&lt;font style=&quot;font-size: 43px&quot;&gt;Tiểu sử&lt;/font&gt;" style="text;html=1;strokeColor=none;fillColor=none;align=center;verticalAlign=middle;whiteSpace=wrap;rounded=0;fontSize=20;" vertex="1" parent="1">
          <mxGeometry x="1180" y="-1790" width="170" height="50" as="geometry" />
        </mxCell>
        <mxCell id="g-QY_plowE2kieTN7VP--84" value="&lt;font style=&quot;font-size: 50px&quot;&gt;Mục tiêu&lt;/font&gt;" style="text;html=1;strokeColor=#d6b656;fillColor=#fff2cc;align=center;verticalAlign=middle;whiteSpace=wrap;rounded=0;" vertex="1" parent="1">
          <mxGeometry x="-100" y="-1290" width="1210" height="160" as="geometry" />
        </mxCell>
        <mxCell id="g-QY_plowE2kieTN7VP--85" value="" style="whiteSpace=wrap;html=1;aspect=fixed;" vertex="1" parent="1">
          <mxGeometry x="-90" y="-1060" width="1200" height="1200" as="geometry" />
        </mxCell>
        <mxCell id="g-QY_plowE2kieTN7VP--98" style="edgeStyle=orthogonalEdgeStyle;rounded=0;orthogonalLoop=1;jettySize=auto;html=1;exitX=1;exitY=0.25;exitDx=0;exitDy=0;" edge="1" parent="1">
          <mxGeometry relative="1" as="geometry">
            <mxPoint x="-260" y="-215" as="sourcePoint" />
            <mxPoint x="-300" y="-230" as="targetPoint" />
          </mxGeometry>
        </mxCell>
        <mxCell id="g-QY_plowE2kieTN7VP--99" value="" style="whiteSpace=wrap;html=1;aspect=fixed;" vertex="1" parent="1">
          <mxGeometry x="-20" y="-980" width="420" height="420" as="geometry" />
        </mxCell>
        <mxCell id="g-QY_plowE2kieTN7VP--101" value="&lt;h1&gt;Heading&lt;/h1&gt;&lt;p&gt;Lorem ipsum dolor sit amet, consectetur adipisicing elit, sed do eiusmod tempor incididunt ut labore et dolore magna aliqua.&lt;/p&gt;" style="text;html=1;strokeColor=none;fillColor=none;spacing=5;spacingTop=-20;whiteSpace=wrap;overflow=hidden;rounded=0;" vertex="1" parent="1">
          <mxGeometry x="10" y="-930" width="350" height="320" as="geometry" />
        </mxCell>
        <mxCell id="g-QY_plowE2kieTN7VP--109" value="" style="whiteSpace=wrap;html=1;aspect=fixed;" vertex="1" parent="1">
          <mxGeometry x="640" y="-980" width="420" height="420" as="geometry" />
        </mxCell>
        <mxCell id="g-QY_plowE2kieTN7VP--110" value="&lt;h1&gt;Heading&lt;/h1&gt;&lt;p&gt;Lorem ipsum dolor sit amet, consectetur adipisicing elit, sed do eiusmod tempor incididunt ut labore et dolore magna aliqua.&lt;/p&gt;" style="text;html=1;strokeColor=none;fillColor=none;spacing=5;spacingTop=-20;whiteSpace=wrap;overflow=hidden;rounded=0;" vertex="1" parent="1">
          <mxGeometry x="660" y="-960" width="380" height="330" as="geometry" />
        </mxCell>
        <mxCell id="g-QY_plowE2kieTN7VP--114" value="" style="whiteSpace=wrap;html=1;aspect=fixed;" vertex="1" parent="1">
          <mxGeometry x="310" y="-540" width="410" height="410" as="geometry" />
        </mxCell>
        <mxCell id="g-QY_plowE2kieTN7VP--115" value="&lt;h1&gt;Heading&lt;/h1&gt;&lt;p&gt;Lorem ipsum dolor sit amet, consectetur adipisicing elit, sed do eiusmod tempor incididunt ut labore et dolore magna aliqua.&lt;/p&gt;" style="text;html=1;strokeColor=none;fillColor=none;spacing=5;spacingTop=-20;whiteSpace=wrap;overflow=hidden;rounded=0;" vertex="1" parent="1">
          <mxGeometry x="330" y="-490" width="360" height="360" as="geometry" />
        </mxCell>
        <mxCell id="g-QY_plowE2kieTN7VP--133" value="&lt;font style=&quot;font-size: 50px&quot;&gt;Book&lt;/font&gt;" style="text;html=1;strokeColor=#d79b00;fillColor=#ffe6cc;align=center;verticalAlign=middle;whiteSpace=wrap;rounded=0;" vertex="1" parent="1">
          <mxGeometry x="-100" y="160" width="1220" height="160" as="geometry" />
        </mxCell>
        <mxCell id="g-QY_plowE2kieTN7VP--141" value="" style="whiteSpace=wrap;html=1;aspect=fixed;" vertex="1" parent="1">
          <mxGeometry y="430" width="420" height="420" as="geometry" />
        </mxCell>
        <mxCell id="g-QY_plowE2kieTN7VP--142" value="&lt;h1&gt;Heading&lt;/h1&gt;&lt;p&gt;Lorem ipsum dolor sit amet, consectetur adipisicing elit, sed do eiusmod tempor incididunt ut labore et dolore magna aliqua.&lt;/p&gt;" style="text;html=1;strokeColor=none;fillColor=none;spacing=5;spacingTop=-20;whiteSpace=wrap;overflow=hidden;rounded=0;" vertex="1" parent="1">
          <mxGeometry x="30" y="480" width="350" height="320" as="geometry" />
        </mxCell>
        <mxCell id="g-QY_plowE2kieTN7VP--143" value="" style="whiteSpace=wrap;html=1;aspect=fixed;" vertex="1" parent="1">
          <mxGeometry x="660" y="430" width="420" height="420" as="geometry" />
        </mxCell>
        <mxCell id="g-QY_plowE2kieTN7VP--144" value="&lt;h1&gt;Heading&lt;/h1&gt;&lt;p&gt;Lorem ipsum dolor sit amet, consectetur adipisicing elit, sed do eiusmod tempor incididunt ut labore et dolore magna aliqua.&lt;/p&gt;" style="text;html=1;strokeColor=none;fillColor=none;spacing=5;spacingTop=-20;whiteSpace=wrap;overflow=hidden;rounded=0;" vertex="1" parent="1">
          <mxGeometry x="680" y="450" width="380" height="330" as="geometry" />
        </mxCell>
        <mxCell id="g-QY_plowE2kieTN7VP--149" value="" style="whiteSpace=wrap;html=1;aspect=fixed;" vertex="1" parent="1">
          <mxGeometry x="-5" y="940" width="420" height="420" as="geometry" />
        </mxCell>
        <mxCell id="g-QY_plowE2kieTN7VP--150" value="&lt;h1&gt;Heading&lt;/h1&gt;&lt;p&gt;Lorem ipsum dolor sit amet, consectetur adipisicing elit, sed do eiusmod tempor incididunt ut labore et dolore magna aliqua.&lt;/p&gt;" style="text;html=1;strokeColor=none;fillColor=none;spacing=5;spacingTop=-20;whiteSpace=wrap;overflow=hidden;rounded=0;" vertex="1" parent="1">
          <mxGeometry x="15" y="960" width="380" height="330" as="geometry" />
        </mxCell>
        <mxCell id="g-QY_plowE2kieTN7VP--151" value="" style="whiteSpace=wrap;html=1;aspect=fixed;" vertex="1" parent="1">
          <mxGeometry x="650" y="940" width="420" height="420" as="geometry" />
        </mxCell>
        <mxCell id="g-QY_plowE2kieTN7VP--152" value="&lt;h1&gt;Heading&lt;/h1&gt;&lt;p&gt;Lorem ipsum dolor sit amet, consectetur adipisicing elit, sed do eiusmod tempor incididunt ut labore et dolore magna aliqua.&lt;/p&gt;" style="text;html=1;strokeColor=none;fillColor=none;spacing=5;spacingTop=-20;whiteSpace=wrap;overflow=hidden;rounded=0;" vertex="1" parent="1">
          <mxGeometry x="670" y="960" width="380" height="330" as="geometry" />
        </mxCell>
        <mxCell id="g-QY_plowE2kieTN7VP--153" value="" style="html=1;shadow=0;dashed=0;shape=mxgraph.bootstrap.rrect;rSize=5;strokeColor=#DEE2E6;html=1;whiteSpace=wrap;fillColor=#ffffff;fontColor=#0085FC;" vertex="1" parent="1">
          <mxGeometry x="-20" y="1450" width="1040" height="40" as="geometry" />
        </mxCell>
        <mxCell id="g-QY_plowE2kieTN7VP--154" value="1" style="strokeColor=inherit;fillColor=inherit;gradientColor=inherit;html=1;shadow=0;dashed=0;shape=mxgraph.bootstrap.leftButton;rSize=5;perimeter=none;whiteSpace=wrap;resizeHeight=1;fillColor=#0085FC;strokeColor=none;fontColor=#ffffff;fontSize=16;" vertex="1" parent="g-QY_plowE2kieTN7VP--153">
          <mxGeometry width="40" height="40" relative="1" as="geometry" />
        </mxCell>
        <mxCell id="g-QY_plowE2kieTN7VP--155" value="2" style="strokeColor=inherit;fillColor=inherit;gradientColor=inherit;fontColor=inherit;html=1;shadow=0;dashed=0;perimeter=none;whiteSpace=wrap;resizeHeight=1;fontSize=16;" vertex="1" parent="g-QY_plowE2kieTN7VP--153">
          <mxGeometry width="40" height="40" relative="1" as="geometry">
            <mxPoint x="40" as="offset" />
          </mxGeometry>
        </mxCell>
        <mxCell id="g-QY_plowE2kieTN7VP--156" value="3" style="strokeColor=inherit;fillColor=inherit;gradientColor=inherit;fontColor=inherit;html=1;shadow=0;dashed=0;shape=mxgraph.bootstrap.rightButton;rSize=5;perimeter=none;whiteSpace=wrap;resizeHeight=1;fontSize=16;" vertex="1" parent="g-QY_plowE2kieTN7VP--153">
          <mxGeometry x="1" width="40" height="40" relative="1" as="geometry">
            <mxPoint x="-40" as="offset" />
          </mxGeometry>
        </mxCell>
        <mxCell id="g-QY_plowE2kieTN7VP--157" value="&lt;font style=&quot;font-size: 50px&quot;&gt;Sở thích&lt;/font&gt;" style="text;html=1;strokeColor=#d79b00;fillColor=#ffe6cc;align=center;verticalAlign=middle;whiteSpace=wrap;rounded=0;" vertex="1" parent="1">
          <mxGeometry x="-100" y="1660" width="1230" height="160" as="geometry" />
        </mxCell>
        <mxCell id="g-QY_plowE2kieTN7VP--177" value="" style="whiteSpace=wrap;html=1;aspect=fixed;" vertex="1" parent="1">
          <mxGeometry x="-97" y="1950" width="1200" height="1200" as="geometry" />
        </mxCell>
        <mxCell id="g-QY_plowE2kieTN7VP--178" value="" style="whiteSpace=wrap;html=1;aspect=fixed;" vertex="1" parent="1">
          <mxGeometry x="-27" y="2030" width="420" height="420" as="geometry" />
        </mxCell>
        <mxCell id="g-QY_plowE2kieTN7VP--179" value="&lt;h1&gt;Heading&lt;/h1&gt;&lt;p&gt;Lorem ipsum dolor sit amet, consectetur adipisicing elit, sed do eiusmod tempor incididunt ut labore et dolore magna aliqua.&lt;/p&gt;" style="text;html=1;strokeColor=none;fillColor=none;spacing=5;spacingTop=-20;whiteSpace=wrap;overflow=hidden;rounded=0;" vertex="1" parent="1">
          <mxGeometry x="3" y="2080" width="350" height="320" as="geometry" />
        </mxCell>
        <mxCell id="g-QY_plowE2kieTN7VP--180" value="" style="whiteSpace=wrap;html=1;aspect=fixed;" vertex="1" parent="1">
          <mxGeometry x="633" y="2030" width="420" height="420" as="geometry" />
        </mxCell>
        <mxCell id="g-QY_plowE2kieTN7VP--181" value="&lt;h1&gt;Heading&lt;/h1&gt;&lt;p&gt;Lorem ipsum dolor sit amet, consectetur adipisicing elit, sed do eiusmod tempor incididunt ut labore et dolore magna aliqua.&lt;/p&gt;" style="text;html=1;strokeColor=none;fillColor=none;spacing=5;spacingTop=-20;whiteSpace=wrap;overflow=hidden;rounded=0;" vertex="1" parent="1">
          <mxGeometry x="653" y="2050" width="380" height="330" as="geometry" />
        </mxCell>
        <mxCell id="g-QY_plowE2kieTN7VP--182" value="" style="whiteSpace=wrap;html=1;aspect=fixed;" vertex="1" parent="1">
          <mxGeometry x="-32" y="2540" width="420" height="420" as="geometry" />
        </mxCell>
        <mxCell id="g-QY_plowE2kieTN7VP--183" value="&lt;h1&gt;Heading&lt;/h1&gt;&lt;p&gt;Lorem ipsum dolor sit amet, consectetur adipisicing elit, sed do eiusmod tempor incididunt ut labore et dolore magna aliqua.&lt;/p&gt;" style="text;html=1;strokeColor=none;fillColor=none;spacing=5;spacingTop=-20;whiteSpace=wrap;overflow=hidden;rounded=0;" vertex="1" parent="1">
          <mxGeometry x="-12" y="2560" width="380" height="330" as="geometry" />
        </mxCell>
        <mxCell id="g-QY_plowE2kieTN7VP--184" value="" style="whiteSpace=wrap;html=1;aspect=fixed;" vertex="1" parent="1">
          <mxGeometry x="623" y="2540" width="420" height="420" as="geometry" />
        </mxCell>
        <mxCell id="g-QY_plowE2kieTN7VP--185" value="&lt;h1&gt;Heading&lt;/h1&gt;&lt;p&gt;Lorem ipsum dolor sit amet, consectetur adipisicing elit, sed do eiusmod tempor incididunt ut labore et dolore magna aliqua.&lt;/p&gt;" style="text;html=1;strokeColor=none;fillColor=none;spacing=5;spacingTop=-20;whiteSpace=wrap;overflow=hidden;rounded=0;" vertex="1" parent="1">
          <mxGeometry x="643" y="2560" width="380" height="330" as="geometry" />
        </mxCell>
        <mxCell id="g-QY_plowE2kieTN7VP--186" value="" style="html=1;shadow=0;dashed=0;shape=mxgraph.bootstrap.rrect;rSize=5;strokeColor=#DEE2E6;html=1;whiteSpace=wrap;fillColor=#ffffff;fontColor=#0085FC;" vertex="1" parent="1">
          <mxGeometry x="-47" y="3050" width="1040" height="40" as="geometry" />
        </mxCell>
        <mxCell id="g-QY_plowE2kieTN7VP--187" value="1" style="strokeColor=inherit;fillColor=inherit;gradientColor=inherit;html=1;shadow=0;dashed=0;shape=mxgraph.bootstrap.leftButton;rSize=5;perimeter=none;whiteSpace=wrap;resizeHeight=1;fillColor=#0085FC;strokeColor=none;fontColor=#ffffff;fontSize=16;" vertex="1" parent="g-QY_plowE2kieTN7VP--186">
          <mxGeometry width="40" height="40" relative="1" as="geometry" />
        </mxCell>
        <mxCell id="g-QY_plowE2kieTN7VP--188" value="2" style="strokeColor=inherit;fillColor=inherit;gradientColor=inherit;fontColor=inherit;html=1;shadow=0;dashed=0;perimeter=none;whiteSpace=wrap;resizeHeight=1;fontSize=16;" vertex="1" parent="g-QY_plowE2kieTN7VP--186">
          <mxGeometry width="40" height="40" relative="1" as="geometry">
            <mxPoint x="40" as="offset" />
          </mxGeometry>
        </mxCell>
        <mxCell id="g-QY_plowE2kieTN7VP--189" value="3" style="strokeColor=inherit;fillColor=inherit;gradientColor=inherit;fontColor=inherit;html=1;shadow=0;dashed=0;shape=mxgraph.bootstrap.rightButton;rSize=5;perimeter=none;whiteSpace=wrap;resizeHeight=1;fontSize=16;" vertex="1" parent="g-QY_plowE2kieTN7VP--186">
          <mxGeometry x="1" width="40" height="40" relative="1" as="geometry">
            <mxPoint x="-40" as="offset" />
          </mxGeometry>
        </mxCell>
        <mxCell id="g-QY_plowE2kieTN7VP--192" style="edgeStyle=orthogonalEdgeStyle;rounded=0;orthogonalLoop=1;jettySize=auto;html=1;fontSize=20;" edge="1" parent="1" source="g-QY_plowE2kieTN7VP--191">
          <mxGeometry relative="1" as="geometry">
            <mxPoint x="-840" y="3290" as="targetPoint" />
          </mxGeometry>
        </mxCell>
        <mxCell id="g-QY_plowE2kieTN7VP--191" value="" style="rounded=0;whiteSpace=wrap;html=1;fontSize=20;" vertex="1" parent="1">
          <mxGeometry x="-750" y="3280" width="2400" height="450" as="geometry" />
        </mxCell>
        <mxCell id="g-QY_plowE2kieTN7VP--194" value="&lt;font style=&quot;font-size: 50px&quot;&gt;Footer&lt;/font&gt;" style="text;html=1;strokeColor=#d79b00;fillColor=#ffe6cc;align=center;verticalAlign=middle;whiteSpace=wrap;rounded=0;" vertex="1" parent="1">
          <mxGeometry x="-280" y="3440" width="1425" height="160" as="geometry" />
        </mxCell>
        <mxCell id="g-QY_plowE2kieTN7VP--195" value="Image" style="html=1;shadow=0;dashed=0;strokeColor=none;strokeWidth=1;fillColor=#777777;fontColor=#555555;whiteSpace=wrap;align=center;verticalAlign=middle;fontStyle=0;fontSize=40;" vertex="1" parent="1">
          <mxGeometry x="-847" y="-1300" width="717" height="4440" as="geometry" />
        </mxCell>
        <mxCell id="g-QY_plowE2kieTN7VP--196" value="banger quảng cao" style="html=1;shadow=0;dashed=0;strokeColor=none;strokeWidth=1;fillColor=#777777;fontColor=#555555;whiteSpace=wrap;align=center;verticalAlign=middle;fontStyle=0;fontSize=40;" vertex="1" parent="1">
          <mxGeometry x="1145" y="-1280" width="525" height="4440" as="geometry" />
        </mxCell>
      </root>
    </mxGraphModel>
  </diagram>
</mxfile>
